<svg width="43" height="38" viewBox="0 0 43 38" fill="none" xmlns="http://www.w3.org/2000/svg">
<g clip-path="url(#clip0_729_245)">
<path d="M14.2445 3.45225H5.35845C5.00604 3.42238 4.65439 3.51561 4.37796 3.71219C4.10153 3.90877 3.92202 4.19326 3.87744 4.50544V35.048H15.7255V4.50544C15.6809 4.19326 15.5014 3.90877 15.225 3.71219C14.9486 3.51561 14.5969 3.42238 14.2445 3.45225Z" fill="#BCBCBC"/>
<path d="M39.1492 33.0365L30.9267 13.763C30.8715 13.6337 30.7881 13.5153 30.6814 13.4146C30.5747 13.3139 30.4468 13.2329 30.3048 13.1762C30.1629 13.1195 30.0098 13.0882 29.8542 13.084C29.6987 13.0799 29.5438 13.1031 29.3983 13.1522L25.2041 14.6056V9.77145C25.2041 9.49213 25.0792 9.22425 24.857 9.02673C24.6348 8.82922 24.3335 8.71826 24.0193 8.71826H18.0952V35.048H25.2041V15.7641L33.4148 35.048L39.1492 33.0365Z" fill="#BCBCBC"/>
</g>
<defs>
<clipPath id="clip0_729_245">
<rect width="42.6531" height="37.9149" fill="white"/>
</clipPath>
</defs>
</svg>
