<svg width="43" height="38" viewBox="0 0 43 38" fill="none" xmlns="http://www.w3.org/2000/svg">
<g clip-path="url(#clip0_742_274)">
<path d="M14.2446 3.45228H5.35857C5.00616 3.42241 4.65451 3.51564 4.37808 3.71222C4.10165 3.9088 3.92214 4.19329 3.87756 4.50547V35.048H15.7256V4.50547C15.6811 4.19329 15.5015 3.9088 15.2251 3.71222C14.9487 3.51564 14.597 3.42241 14.2446 3.45228Z" fill="#BCBCBC"/>
<path d="M39.1492 33.0364L30.9267 13.763C30.8715 13.6337 30.7881 13.5153 30.6814 13.4146C30.5747 13.3139 30.4468 13.2329 30.3048 13.1762C30.1629 13.1194 30.0098 13.0881 29.8542 13.084C29.6987 13.0799 29.5438 13.1031 29.3983 13.1522L25.2041 14.6056V9.77142C25.2041 9.4921 25.0792 9.22422 24.857 9.0267C24.6348 8.82919 24.3335 8.71823 24.0193 8.71823H18.0952V35.048H25.2041V15.7641L33.4148 35.048L39.1492 33.0364Z" fill="#BCBCBC"/>
</g>
<defs>
<clipPath id="clip0_742_274">
<rect width="42.6531" height="37.9149" fill="white"/>
</clipPath>
</defs>
</svg>
